#Comment line ignore any data following # character 
#Hierarchical Translation and Rotation (.htr) file 
[Header]	
#Header keywords are followed by a single value 
FileType HTR		#Single word string
DataType HTRS		#Translation followed by rotation and scale data
FileVersion 1		#integer
NumSegments 84		#integer
NumFrames 2		#integer
DataFrameRate 30		#integer, data frame rate in this file
EulerRotationOrder ZYX
CalibrationUnits mm
RotationUnits Degrees
GlobalAxisofGravity Y
BoneLengthAxis Y
ScaleFactor 1.00
[SegmentNames&Hierarchy]
#CHILD	PARENT
MASTER GLOBAL
root MASTER
chest root
L_mid_tent01 root
R_mid_tent01 root
spine01 root
Bip01_Neck chest
L_humerus chest
R_humerus chest
weapon_bone chest
Bip01_Head Bip01_Neck
eye_left_bone Bip01_Head
eye_right_bone Bip01_Head
L_forearm L_humerus
L_front_hand L_forearm
L_weapon_bone L_forearm
L_front_hand01_01 L_front_hand
L_front_hand02_01 L_front_hand
L_front_hand03_01 L_front_hand
L_front_hand01_02 L_front_hand01_01
L_front_hand02_02 L_front_hand02_01
L_front_hand03_02 L_front_hand03_01
R_forearm R_humerus
R_front_hand R_forearm
R_weapon_bone R_forearm
R_front_hand01_01 R_front_hand
R_front_hand02_01 R_front_hand
R_front_hand03_01 R_front_hand
R_front_hand01_02 R_front_hand01_01
R_front_hand02_02 R_front_hand02_01
R_front_hand03_02 R_front_hand03_01
null_rope01_connect L_mid_tent01
Rope1_Seg01 null_rope01_connect
Rope1_Seg02 Rope1_Seg01
Rope1_Seg03 Rope1_Seg02
Rope1_Seg04 Rope1_Seg03
Rope1_Seg05 Rope1_Seg04
Rope1_Seg06 Rope1_Seg05
Rope1_Seg07 Rope1_Seg06
Rope1_Seg09 Rope1_Seg07
L_mid_hand01 Rope1_Seg09
L_mid_hand02 Rope1_Seg09
L_mid_hand03 Rope1_Seg09
null_rope02_connect R_mid_tent01
Rope2_Seg01 null_rope02_connect
Rope2_Seg02 Rope2_Seg01
Rope2_Seg03 Rope2_Seg02
Rope2_Seg04 Rope2_Seg03
Rope2_Seg05 Rope2_Seg04
Rope2_Seg06 Rope2_Seg05
Rope2_Seg07 Rope2_Seg06
Rope2_Seg09 Rope2_Seg07
R_mid_hand01 Rope2_Seg09
R_mid_hand02 Rope2_Seg09
R_mid_hand03 Rope2_Seg09
spine02 spine01
spine03 spine02
pelvis spine03
null_rope03_connect pelvis
null_rope04_connect pelvis
Rope3_Seg01 null_rope03_connect
Rope3_Seg02 Rope3_Seg01
Rope3_Seg03 Rope3_Seg02
Rope3_Seg04 Rope3_Seg03
Rope3_Seg05 Rope3_Seg04
Rope3_Seg06 Rope3_Seg05
Rope3_Seg07 Rope3_Seg06
Rope3_Seg08 Rope3_Seg07
Rope3_Seg09 Rope3_Seg08
R_rear_hand01 Rope3_Seg09
R_rear_hand02 Rope3_Seg09
R_rear_hand03 Rope3_Seg09
Rope4_Seg01 null_rope04_connect
Rope4_Seg02 Rope4_Seg01
Rope4_Seg03 Rope4_Seg02
Rope4_Seg04 Rope4_Seg03
Rope4_Seg05 Rope4_Seg04
Rope4_Seg06 Rope4_Seg05
Rope4_Seg07 Rope4_Seg06
Rope4_Seg08 Rope4_Seg07
Rope4_Seg09 Rope4_Seg08
L_rear_hand01 Rope4_Seg09
L_rear_hand02 Rope4_Seg09
L_rear_hand03 Rope4_Seg09
[BasePosition]
#SegmentName Tx, Ty, Tz, Rx, Ry, Rz, BoneLength
MASTER 0.000000 0.000000 0.000000 -90.000000 0.000000 0.000000 10.000000 
root 0.000000 0.000000 0.000000 0.000000 0.000000 0.000000 10.000000 
chest 0.000000 0.000000 0.000000 0.000000 0.000000 0.000000 10.000000 
L_mid_tent01 0.000000 0.000000 0.000000 0.000000 0.000000 0.000000 10.000000 
R_mid_tent01 0.000000 0.000000 0.000000 0.000000 0.000000 0.000000 10.000000 
spine01 0.000000 0.000000 0.000000 0.000000 0.000000 0.000000 10.000000 
Bip01_Neck 0.000000 0.000000 0.000000 0.000000 0.000000 0.000000 10.000000 
L_humerus 0.000000 0.000000 0.000000 0.000000 0.000000 0.000000 10.000000 
R_humerus 0.000000 0.000000 0.000000 0.000000 0.000000 0.000000 10.000000 
weapon_bone 0.000000 0.000000 0.000000 0.000000 0.000000 0.000000 10.000000 
Bip01_Head 0.000000 0.000000 0.000000 0.000000 0.000000 0.000000 10.000000 
eye_left_bone 0.000000 0.000000 0.000000 0.000000 0.000000 0.000000 10.000000 
eye_right_bone 0.000000 0.000000 0.000000 0.000000 0.000000 0.000000 10.000000 
L_forearm 0.000000 0.000000 0.000000 0.000000 0.000000 0.000000 10.000000 
L_front_hand 0.000000 0.000000 0.000000 0.000000 0.000000 0.000000 10.000000 
L_weapon_bone 0.000000 0.000000 0.000000 0.000000 0.000000 0.000000 10.000000 
L_front_hand01_01 0.000000 0.000000 0.000000 0.000000 0.000000 0.000000 10.000000 
L_front_hand02_01 0.000000 0.000000 0.000000 0.000000 0.000000 0.000000 10.000000 
L_front_hand03_01 0.000000 0.000000 0.000000 0.000000 0.000000 0.000000 10.000000 
L_front_hand01_02 0.000000 0.000000 0.000000 0.000000 0.000000 0.000000 10.000000 
L_front_hand02_02 0.000000 0.000000 0.000000 0.000000 0.000000 0.000000 10.000000 
L_front_hand03_02 0.000000 0.000000 0.000000 0.000000 0.000000 0.000000 10.000000 
R_forearm 0.000000 0.000000 0.000000 0.000000 0.000000 0.000000 10.000000 
R_front_hand 0.000000 0.000000 0.000000 0.000000 0.000000 0.000000 10.000000 
R_weapon_bone 0.000000 0.000000 0.000000 0.000000 0.000000 0.000000 10.000000 
R_front_hand01_01 0.000000 0.000000 0.000000 0.000000 0.000000 0.000000 10.000000 
R_front_hand02_01 0.000000 0.000000 0.000000 0.000000 0.000000 0.000000 10.000000 
R_front_hand03_01 0.000000 0.000000 0.000000 0.000000 0.000000 0.000000 10.000000 
R_front_hand01_02 0.000000 0.000000 0.000000 0.000000 0.000000 0.000000 10.000000 
R_front_hand02_02 0.000000 0.000000 0.000000 0.000000 0.000000 0.000000 10.000000 
R_front_hand03_02 0.000000 0.000000 0.000000 0.000000 0.000000 0.000000 10.000000 
null_rope01_connect 0.000000 0.000000 0.000000 0.000000 0.000000 0.000000 10.000000 
Rope1_Seg01 0.000000 0.000000 0.000000 0.000000 0.000000 0.000000 10.000000 
Rope1_Seg02 0.000000 0.000000 0.000000 0.000000 0.000000 0.000000 10.000000 
Rope1_Seg03 0.000000 0.000000 0.000000 0.000000 0.000000 0.000000 10.000000 
Rope1_Seg04 0.000000 0.000000 0.000000 0.000000 0.000000 0.000000 10.000000 
Rope1_Seg05 0.000000 0.000000 0.000000 0.000000 0.000000 0.000000 10.000000 
Rope1_Seg06 0.000000 0.000000 0.000000 0.000000 0.000000 0.000000 10.000000 
Rope1_Seg07 0.000000 0.000000 0.000000 0.000000 0.000000 0.000000 10.000000 
Rope1_Seg09 0.000000 0.000000 0.000000 0.000000 0.000000 0.000000 10.000000 
L_mid_hand01 0.000000 0.000000 0.000000 0.000000 0.000000 0.000000 10.000000 
L_mid_hand02 0.000000 0.000000 0.000000 0.000000 0.000000 0.000000 10.000000 
L_mid_hand03 0.000000 0.000000 0.000000 0.000000 0.000000 0.000000 10.000000 
null_rope02_connect 0.000000 0.000000 0.000000 0.000000 0.000000 0.000000 10.000000 
Rope2_Seg01 0.000000 0.000000 0.000000 0.000000 0.000000 0.000000 10.000000 
Rope2_Seg02 0.000000 0.000000 0.000000 0.000000 0.000000 0.000000 10.000000 
Rope2_Seg03 0.000000 0.000000 0.000000 0.000000 0.000000 0.000000 10.000000 
Rope2_Seg04 0.000000 0.000000 0.000000 0.000000 0.000000 0.000000 10.000000 
Rope2_Seg05 0.000000 0.000000 0.000000 0.000000 0.000000 0.000000 10.000000 
Rope2_Seg06 0.000000 0.000000 0.000000 0.000000 0.000000 0.000000 10.000000 
Rope2_Seg07 0.000000 0.000000 0.000000 0.000000 0.000000 0.000000 10.000000 
Rope2_Seg09 0.000000 0.000000 0.000000 0.000000 0.000000 0.000000 10.000000 
R_mid_hand01 0.000000 0.000000 0.000000 0.000000 0.000000 0.000000 10.000000 
R_mid_hand02 0.000000 0.000000 0.000000 0.000000 0.000000 0.000000 10.000000 
R_mid_hand03 0.000000 0.000000 0.000000 0.000000 0.000000 0.000000 10.000000 
spine02 0.000000 0.000000 0.000000 0.000000 0.000000 0.000000 10.000000 
spine03 0.000000 0.000000 0.000000 0.000000 0.000000 0.000000 10.000000 
pelvis 0.000000 0.000000 0.000000 0.000000 0.000000 0.000000 10.000000 
null_rope03_connect 0.000000 0.000000 0.000000 0.000000 0.000000 0.000000 10.000000 
null_rope04_connect 0.000000 0.000000 0.000000 0.000000 0.000000 0.000000 10.000000 
Rope3_Seg01 0.000000 0.000000 0.000000 0.000000 0.000000 0.000000 10.000000 
Rope3_Seg02 0.000000 0.000000 0.000000 0.000000 0.000000 0.000000 10.000000 
Rope3_Seg03 0.000000 0.000000 0.000000 0.000000 0.000000 0.000000 10.000000 
Rope3_Seg04 0.000000 0.000000 0.000000 0.000000 0.000000 0.000000 10.000000 
Rope3_Seg05 0.000000 0.000000 0.000000 0.000000 0.000000 0.000000 10.000000 
Rope3_Seg06 0.000000 0.000000 0.000000 0.000000 0.000000 0.000000 10.000000 
Rope3_Seg07 0.000000 0.000000 0.000000 0.000000 0.000000 0.000000 10.000000 
Rope3_Seg08 0.000000 0.000000 0.000000 0.000000 0.000000 0.000000 10.000000 
Rope3_Seg09 0.000000 0.000000 0.000000 0.000000 0.000000 0.000000 10.000000 
R_rear_hand01 0.000000 0.000000 0.000000 0.000000 0.000000 0.000000 10.000000 
R_rear_hand02 0.000000 0.000000 0.000000 0.000000 0.000000 0.000000 10.000000 
R_rear_hand03 0.000000 0.000000 0.000000 0.000000 0.000000 0.000000 10.000000 
Rope4_Seg01 0.000000 0.000000 0.000000 0.000000 0.000000 0.000000 10.000000 
Rope4_Seg02 0.000000 0.000000 0.000000 0.000000 0.000000 0.000000 10.000000 
Rope4_Seg03 0.000000 0.000000 0.000000 0.000000 0.000000 0.000000 10.000000 
Rope4_Seg04 0.000000 0.000000 0.000000 0.000000 0.000000 0.000000 10.000000 
Rope4_Seg05 0.000000 0.000000 0.000000 0.000000 0.000000 0.000000 10.000000 
Rope4_Seg06 0.000000 0.000000 0.000000 0.000000 0.000000 0.000000 10.000000 
Rope4_Seg07 0.000000 0.000000 0.000000 0.000000 0.000000 0.000000 10.000000 
Rope4_Seg08 0.000000 0.000000 0.000000 0.000000 0.000000 0.000000 10.000000 
Rope4_Seg09 0.000000 0.000000 0.000000 0.000000 0.000000 0.000000 10.000000 
L_rear_hand01 0.000000 0.000000 0.000000 0.000000 0.000000 0.000000 10.000000 
L_rear_hand02 0.000000 0.000000 0.000000 0.000000 0.000000 0.000000 10.000000 
L_rear_hand03 0.000000 0.000000 0.000000 0.000000 0.000000 0.000000 10.000000 
#Beginning of Data. Separated by tabs
#Fr	Tx	Ty	Tz	Rx	Ry	Rz	SF
[MASTER]
28 -0.000539 3447.591064 2778.860596 0.001660 0.001660 0.001660 4428.086426
29 -0.000550 3525.992676 2724.361084 0.001660 0.001660 0.001660 4455.868652
[root]
28 -17.000280 -62.781677 1500.584961 -92.368828 -26.967379 -90.408653 1501.993896
29 -16.502293 -62.822262 1500.000000 -91.629700 -27.676081 -90.148109 1501.405640
[chest]
28 -84.512650 -34.090519 0.000000 -1.976649 0.871829 178.731796 91.129311
29 -84.512650 -34.090519 0.000000 -2.002967 0.825454 177.787491 91.129311
[L_mid_tent01]
28 27.298960 22.179003 -249.918655 -31.995848 11.794316 3.178560 252.381607
29 27.298954 22.178999 -249.918640 -31.055573 11.885997 3.990949 252.381592
[R_mid_tent01]
28 23.228794 24.509907 226.238495 -141.845001 -10.968739 -2.309654 228.744751
29 23.228794 24.509907 226.238495 -143.031021 -10.919083 -1.500988 228.744751
[spine01]
28 -0.361383 -0.195265 0.000000 0.002054 0.001137 32.060802 0.410763
29 -0.361383 -0.195265 0.000000 0.002045 0.001152 31.203276 0.410763
[Bip01_Neck]
28 165.484543 71.581718 0.000119 176.643677 -1.657967 43.431911 180.302734
29 165.484543 71.581718 0.000119 176.643677 -1.657967 43.431911 180.302734
[L_humerus]
28 -13.983130 -135.272980 -120.471481 -5.480129 68.873367 84.573456 181.680161
29 -13.983130 -135.272980 -120.471481 -5.480129 68.873367 84.573456 181.680161
[R_humerus]
28 -13.983309 -135.273102 125.287651 27.830740 -69.921516 67.902298 184.909012
29 -13.983309 -135.273102 125.287651 27.830746 -69.921516 67.902298 184.909012
[weapon_bone]
28 235.964890 -300.705902 0.000000 0.000000 -89.951546 -128.212341 382.234833
29 235.964890 -300.705902 0.000000 0.000000 -89.951546 -128.212341 382.234833
[Bip01_Head]
28 213.355087 185.962830 8.587024 4.599909 4.405474 -36.969570 283.154205
29 213.342896 185.997772 8.135312 4.907806 5.325968 -40.562893 283.154633
[eye_left_bone]
28 -24.626970 125.451866 -64.772606 0.000000 -90.000000 -99.840431 143.318359
29 -24.626970 125.451866 -64.772606 0.000000 -90.000000 -99.840431 143.318359
[eye_right_bone]
28 -24.626970 125.451866 64.327362 0.000000 -89.965736 80.156380 143.117676
29 -24.626970 125.451866 64.327362 0.000000 -89.965736 80.156380 143.117676
[L_forearm]
28 322.776093 0.000000 -0.000119 0.000412 -0.002311 -110.214355 322.776093
29 322.776093 0.000000 -0.000119 0.000410 -0.002311 -110.114929 322.776093
[L_front_hand]
28 241.149185 -0.042021 -3.300071 -178.667953 -1.835447 -27.422350 241.171753
29 241.149185 -0.042021 -3.300071 -178.667953 -1.835447 -27.422342 241.171753
[L_weapon_bone]
28 156.183838 0.000000 0.000000 0.000014 0.000007 0.000001 156.183838
29 156.183838 0.000000 0.000000 0.000014 0.000007 0.000001 156.183838
[L_front_hand01_01]
28 86.095154 20.947098 -0.655860 -0.351864 -0.488251 73.756912 88.609184
29 86.095154 20.947098 -0.655860 -0.358124 -0.483585 74.301987 88.609184
[L_front_hand02_01]
28 86.935165 -11.437475 24.513514 151.937759 -59.151104 -58.507717 91.046425
29 86.935165 -11.437475 24.513514 152.741364 -59.405788 -59.444736 91.046425
[L_front_hand03_01]
28 86.637497 -14.123976 -20.424902 -151.626480 57.374607 -59.999687 90.126129
29 86.637497 -14.123976 -20.424902 -152.381119 57.628048 -60.890831 90.126129
[L_front_hand01_02]
28 71.020905 -0.000179 0.000030 0.000324 -0.002325 -105.885551 71.020905
29 71.020905 -0.000179 0.000030 0.000325 -0.002325 -105.939064 71.020905
[L_front_hand02_02]
28 71.020927 -0.000119 0.000060 0.000324 -0.002325 -105.885551 71.020927
29 71.020927 -0.000119 0.000060 0.000325 -0.002325 -105.939064 71.020927
[L_front_hand03_02]
28 71.020905 -0.000060 0.000060 0.000324 -0.002325 -105.885551 71.020905
29 71.020905 -0.000060 0.000060 0.000325 -0.002325 -105.939064 71.020905
[R_forearm]
28 322.776428 -0.000060 0.000030 0.201642 0.066576 -108.867874 322.776428
29 322.776428 -0.000060 0.000030 0.201699 0.066402 -108.768837 322.776428
[R_front_hand]
28 238.847015 -0.006795 2.210259 -2.635298 -10.645461 -26.312506 238.857239
29 238.847015 -0.006795 2.210259 -2.635298 -10.645461 -26.312506 238.857239
[R_weapon_bone]
28 155.664093 0.002503 -0.000030 0.003487 0.001180 -90.988930 155.664078
29 155.664093 0.002503 -0.000030 0.003487 0.001180 -90.988930 155.664078
[R_front_hand01_01]
28 87.624611 14.231146 22.918642 -154.633484 -59.950607 61.746033 91.683487
29 87.624611 14.231146 22.918642 -154.633514 -59.950626 61.746063 91.683487
[R_front_hand02_01]
28 89.356956 14.367283 -19.491137 154.602661 58.302856 63.744389 92.579636
29 89.356956 14.367283 -19.491137 154.602676 58.302864 63.744400 92.579636
[R_front_hand03_01]
28 87.286232 -22.307278 -0.143439 0.162155 -0.423168 -75.767921 90.091743
29 87.286232 -22.307278 -0.143439 0.162155 -0.423168 -75.767921 90.091743
[R_front_hand01_02]
28 71.020905 0.000060 0.000119 0.002323 -0.000334 106.381714 71.020905
29 71.020905 0.000060 0.000119 0.002323 -0.000334 106.381714 71.020905
[R_front_hand02_02]
28 71.020844 -0.000030 -0.000119 0.002323 -0.000334 106.381714 71.020836
29 71.020844 -0.000030 -0.000119 0.002323 -0.000334 106.381714 71.020836
[R_front_hand03_02]
28 71.020905 0.000000 0.000030 0.002323 -0.000334 106.381714 71.020905
29 71.020905 0.000000 0.000030 0.002323 -0.000334 106.381714 71.020905
[null_rope01_connect]
28 328.732483 0.000000 -0.000238 -138.522186 -53.559464 -111.000999 328.732483
29 328.732483 0.000000 -0.000238 -137.878159 -55.290726 -111.661850 328.732483
[Rope1_Seg01]
28 0.000026 -0.000223 -0.000211 142.443237 27.544767 -141.570847 0.000308
29 0.000027 -0.000230 -0.000219 136.796860 25.271532 -139.329758 0.000319
[Rope1_Seg02]
28 139.999863 -0.000179 0.000000 -40.234177 13.017902 2.954545 139.999863
29 139.999863 -0.000179 0.000000 -42.943802 12.440675 4.165339 139.999863
[Rope1_Seg03]
28 139.999924 0.000060 -0.000060 -36.214920 10.048633 12.779948 139.999924
29 139.999924 0.000060 -0.000060 -32.270607 7.841973 13.849780 139.999924
[Rope1_Seg04]
28 139.999924 -0.000060 -0.000119 -16.257164 0.813843 17.510817 139.999924
29 139.999924 -0.000060 -0.000119 -13.602932 -0.798567 16.681252 139.999924
[Rope1_Seg05]
28 139.999832 0.000119 -0.000060 1.402933 -3.910735 2.304666 139.999832
29 139.999832 0.000119 -0.000060 1.823266 -2.596655 0.390769 139.999832
[Rope1_Seg06]
28 139.999954 0.000119 -0.000060 3.067339 -2.161951 -1.991125 139.999954
29 139.999954 0.000119 -0.000060 2.921996 -1.113123 -2.663995 139.999954
[Rope1_Seg07]
28 139.999985 0.000060 0.000000 0.516085 -1.133175 0.496098 139.999985
29 139.999985 0.000060 0.000000 0.574866 -0.760375 0.076975 139.999985
[Rope1_Seg09]
28 121.602913 0.000119 -0.000089 -89.793175 -1.359789 0.847147 121.602913
29 121.602913 0.000119 -0.000089 -89.793175 -1.359789 0.847147 121.602913
[L_mid_hand01]
28 103.859421 1.038730 8.195221 130.544342 -67.584518 -38.866936 104.187431
29 103.859421 1.038730 8.195221 130.544373 -67.584534 -38.866943 104.187431
[L_mid_hand02]
28 105.572853 -4.139662 -10.864139 -168.923172 43.409309 -73.498894 106.211075
29 105.572853 -4.139662 -10.864139 -168.923172 43.409317 -73.498901 106.211075
[L_mid_hand03]
28 104.641464 17.579376 -3.913581 -6.012625 17.808174 74.893669 106.179977
29 104.641464 17.579376 -3.913581 -6.012628 17.808178 74.893669 106.179977
[null_rope02_connect]
28 328.732849 0.000179 -0.000119 -136.656357 53.085728 -71.998055 328.732849
29 328.732849 0.000179 -0.000119 -136.263687 53.336433 -71.666817 328.732849
[Rope2_Seg01]
28 0.000103 -0.000176 0.000000 43.809849 -18.104950 -55.455925 0.000204
29 0.000104 -0.000187 0.000000 52.604145 -20.852404 -63.187618 0.000214
[Rope2_Seg02]
28 139.999741 -0.000060 -0.000119 1.414660 1.359728 -1.816739 139.999756
29 139.999741 -0.000060 -0.000119 -1.124748 1.638206 0.440653 139.999756
[Rope2_Seg03]
28 140.000107 0.000030 0.000000 1.103656 0.954076 -1.309781 140.000107
29 140.000107 0.000030 0.000000 -1.021860 1.114394 0.540744 140.000107
[Rope2_Seg04]
28 139.999802 0.000000 -0.000060 0.527781 0.543744 -0.648678 139.999802
29 139.999802 0.000000 -0.000060 -1.037317 0.764668 0.692129 139.999802
[Rope2_Seg05]
28 139.999985 -0.000060 0.000119 1.048638 0.674600 -1.109974 139.999985
29 139.999985 -0.000060 0.000119 0.138116 0.556081 -0.418059 139.999985
[Rope2_Seg06]
28 139.999893 -0.000030 -0.000119 2.744372 1.278998 -2.505927 139.999893
29 139.999893 -0.000030 -0.000119 1.548972 0.688909 -1.804366 139.999893
[Rope2_Seg07]
28 139.999893 0.000060 -0.000060 5.108916 1.778451 -3.959997 139.999893
29 139.999893 0.000060 -0.000060 1.944731 0.849429 -2.145678 139.999893
[Rope2_Seg09]
28 121.338966 0.000089 -0.000060 33.793236 -1.359788 -0.847141 121.338966
29 121.338966 0.000089 -0.000060 33.793236 -1.359788 -0.847141 121.338966
[R_mid_hand01]
28 104.680779 11.144459 -10.335981 -16.212063 45.237247 70.462852 105.778534
29 104.680779 11.144459 -10.335981 -16.212063 45.237247 70.462852 105.778534
[R_mid_hand02]
28 104.070427 2.443552 8.231699 49.067368 -67.749771 39.286453 104.424065
29 104.070427 2.443552 8.231699 49.067368 -67.749771 39.286453 104.424065
[R_mid_hand03]
28 106.028137 -11.221827 -5.996406 -177.101105 15.551026 -76.585571 106.788818
29 106.028137 -11.221827 -5.996406 -177.101105 15.551026 -76.585571 106.788818
[spine02]
28 129.756927 0.001550 0.000119 -0.391590 -4.043634 -2.320515 129.756927
29 129.756927 0.001550 0.000119 -0.324588 -4.048673 -3.271184 129.756927
[spine03]
28 78.614151 0.081693 -4.899025 1.943773 3.808349 17.189663 78.766693
29 78.614159 0.081701 -4.899026 1.937634 3.811181 17.099421 78.766701
[pelvis]
28 169.435242 0.051022 0.000000 -0.064578 -0.179199 15.537053 169.435257
29 169.435242 0.051022 0.000000 -0.063680 -0.179383 15.354820 169.435257
[null_rope03_connect]
28 -1.257226 -2.466202 137.391083 -139.227081 -87.720245 -166.198059 137.418976
29 -1.257226 -2.466202 137.391083 -138.217682 -88.672935 -164.418884 137.418976
[null_rope04_connect]
28 -1.259640 -2.480268 -137.844437 -139.227081 -87.720245 -166.198059 137.872513
29 -1.259640 -2.480268 -137.844437 -138.217682 -88.672935 -164.418884 137.872513
[Rope3_Seg01]
28 -0.000029 -0.000012 0.000211 -124.282318 25.422646 -59.738140 0.000214
29 -0.000029 -0.000011 0.000219 -122.757545 24.709988 -56.373711 0.000221
[Rope3_Seg02]
28 139.999924 -0.000119 0.000060 -1.095592 4.280157 -4.574076 139.999924
29 139.999924 -0.000119 0.000060 -1.614078 5.841368 -4.083211 139.999924
[Rope3_Seg03]
28 139.999924 -0.000119 0.000119 0.661270 -3.112545 2.131074 139.999924
29 139.999924 -0.000119 0.000119 0.434201 -1.255827 1.604408 139.999924
[Rope3_Seg04]
28 139.999924 0.000119 0.000000 -5.612440 15.267831 -13.230324 139.999924
29 139.999924 0.000119 0.000000 -7.585074 17.299976 -16.024946 139.999924
[Rope3_Seg05]
28 139.999924 -0.000238 0.000060 -7.304281 19.172636 -14.586728 139.999924
29 139.999924 -0.000238 0.000060 -7.294242 17.453182 -13.522020 139.999924
[Rope3_Seg06]
28 139.999893 -0.000119 -0.000060 -1.654483 7.524565 -4.589299 139.999893
29 139.999893 -0.000119 -0.000060 -1.575336 6.335969 -3.865906 139.999893
[Rope3_Seg07]
28 139.999771 0.000060 -0.000119 -0.577859 4.442154 -2.560032 139.999771
29 139.999771 0.000060 -0.000119 -0.614291 3.898275 -2.246260 139.999771
[Rope3_Seg08]
28 139.999985 -0.000060 0.000000 -0.051561 2.607816 -1.468799 139.999985
29 139.999985 -0.000060 0.000000 -0.088678 2.300704 -1.296178 139.999985
[Rope3_Seg09]
28 90.185997 -0.000179 -0.000060 89.793228 -1.359877 -0.847183 90.185997
29 90.185997 -0.000179 -0.000060 89.793228 -1.359877 -0.847183 90.185997
[R_rear_hand01]
28 103.366196 -6.073594 -10.757982 -177.714203 24.565960 -73.910950 104.101845
29 103.366196 -6.073594 -10.757982 -177.714203 24.565960 -73.910950 104.101845
[R_rear_hand02]
28 100.509819 12.039542 -7.992327 -12.874829 36.868488 72.167213 101.543350
29 100.509819 12.039542 -7.992327 -12.874827 36.868492 72.167221 101.543350
[R_rear_hand03]
28 101.539970 5.215704 5.435467 71.484581 -71.816628 21.513813 101.819031
29 101.539970 5.215704 5.435467 71.484566 -71.816597 21.513792 101.819031
[Rope4_Seg01]
28 0.000010 0.000012 -0.000047 50.993896 -11.994196 -111.971611 0.000049
29 0.000010 0.000011 -0.000043 50.360889 -9.378434 -111.172684 0.000045
[Rope4_Seg02]
28 139.999985 0.000060 0.000119 -1.507061 -2.010107 -7.818813 139.999985
29 139.999985 0.000060 0.000119 -0.947861 -0.850873 -5.488389 139.999985
[Rope4_Seg03]
28 139.999924 0.000000 -0.000238 -3.481504 -2.310366 -11.712566 139.999924
29 139.999924 0.000000 -0.000238 -1.974599 -0.855354 -8.276296 139.999924
[Rope4_Seg04]
28 139.999985 0.000000 0.000119 -14.475578 5.972310 -26.528563 139.999985
29 139.999985 0.000000 0.000119 -8.988043 8.591202 -21.175770 139.999985
[Rope4_Seg05]
28 139.999802 -0.000060 -0.000119 2.282195 -15.413664 -5.035707 139.999802
29 139.999802 -0.000060 -0.000119 5.513984 -23.541731 -1.906787 139.999802
[Rope4_Seg06]
28 139.999924 0.000000 0.000060 35.186466 -31.069824 14.896684 139.999924
29 139.999924 0.000000 0.000060 25.229269 -26.585157 12.500979 139.999924
[Rope4_Seg07]
28 139.999802 0.000000 0.000000 17.203981 -6.579647 9.113590 139.999802
29 139.999802 0.000000 0.000000 11.936338 -6.440523 6.055074 139.999802
[Rope4_Seg08]
28 139.999924 0.000000 0.000119 6.739141 -1.781711 5.101128 139.999924
29 139.999924 0.000000 0.000119 5.081420 -2.502188 3.624872 139.999924
[Rope4_Seg09]
28 90.185791 0.000060 0.000060 -135.617828 2.228885 0.850567 90.185791
29 90.185791 0.000060 0.000060 -135.617828 2.228885 0.850567 90.185791
[L_rear_hand01]
28 101.696655 -8.392275 -7.654577 -12.874829 -36.868488 107.832764 102.329041
29 101.696655 -8.392275 -7.654577 -12.874829 -36.868488 107.832764 102.329041
[L_rear_hand02]
28 102.726799 -1.568258 5.773216 71.484581 71.816643 158.486160 102.900848
29 102.726799 -1.568258 5.773216 71.484627 71.816643 158.486160 102.900848
[L_rear_hand03]
28 104.552910 9.721220 -10.420293 -177.714203 -24.565960 -106.089035 105.519653
29 104.552910 9.721220 -10.420293 -177.714203 -24.565960 -106.089035 105.519653
